%TF.GenerationSoftware,KiCad,Pcbnew,6.0.11+dfsg-1~bpo11+1*%
%TF.CreationDate,2024-04-09T07:09:36+02:00*%
%TF.ProjectId,water detector2,77617465-7220-4646-9574-6563746f7232,0*%
%TF.SameCoordinates,Original*%
%TF.FileFunction,Legend,Top*%
%TF.FilePolarity,Positive*%
%FSLAX46Y46*%
G04 Gerber Fmt 4.6, Leading zero omitted, Abs format (unit mm)*
G04 Created by KiCad (PCBNEW 6.0.11+dfsg-1~bpo11+1) date 2024-04-09 07:09:36*
%MOMM*%
%LPD*%
G01*
G04 APERTURE LIST*
%ADD10C,0.150000*%
%ADD11C,0.120000*%
G04 APERTURE END LIST*
D10*
X128341428Y-58911904D02*
X128341428Y-58150000D01*
X128722380Y-58530952D02*
X127960476Y-58530952D01*
X128722380Y-57150000D02*
X128722380Y-57721428D01*
X128722380Y-57435714D02*
X127722380Y-57435714D01*
X127865238Y-57530952D01*
X127960476Y-57626190D01*
X128008095Y-57721428D01*
X127817619Y-56769047D02*
X127770000Y-56721428D01*
X127722380Y-56626190D01*
X127722380Y-56388095D01*
X127770000Y-56292857D01*
X127817619Y-56245238D01*
X127912857Y-56197619D01*
X128008095Y-56197619D01*
X128150952Y-56245238D01*
X128722380Y-56816666D01*
X128722380Y-56197619D01*
X127722380Y-55911904D02*
X128722380Y-55578571D01*
X127722380Y-55245238D01*
X88790952Y-67095714D02*
X88981428Y-67762380D01*
X89171904Y-67286190D01*
X89362380Y-67762380D01*
X89552857Y-67095714D01*
X90362380Y-67762380D02*
X90362380Y-67238571D01*
X90314761Y-67143333D01*
X90219523Y-67095714D01*
X90029047Y-67095714D01*
X89933809Y-67143333D01*
X90362380Y-67714761D02*
X90267142Y-67762380D01*
X90029047Y-67762380D01*
X89933809Y-67714761D01*
X89886190Y-67619523D01*
X89886190Y-67524285D01*
X89933809Y-67429047D01*
X90029047Y-67381428D01*
X90267142Y-67381428D01*
X90362380Y-67333809D01*
X90695714Y-67095714D02*
X91076666Y-67095714D01*
X90838571Y-66762380D02*
X90838571Y-67619523D01*
X90886190Y-67714761D01*
X90981428Y-67762380D01*
X91076666Y-67762380D01*
X91790952Y-67714761D02*
X91695714Y-67762380D01*
X91505238Y-67762380D01*
X91410000Y-67714761D01*
X91362380Y-67619523D01*
X91362380Y-67238571D01*
X91410000Y-67143333D01*
X91505238Y-67095714D01*
X91695714Y-67095714D01*
X91790952Y-67143333D01*
X91838571Y-67238571D01*
X91838571Y-67333809D01*
X91362380Y-67429047D01*
X92267142Y-67762380D02*
X92267142Y-67095714D01*
X92267142Y-67286190D02*
X92314761Y-67190952D01*
X92362380Y-67143333D01*
X92457619Y-67095714D01*
X92552857Y-67095714D01*
X94076666Y-67762380D02*
X94076666Y-66762380D01*
X94076666Y-67714761D02*
X93981428Y-67762380D01*
X93790952Y-67762380D01*
X93695714Y-67714761D01*
X93648095Y-67667142D01*
X93600476Y-67571904D01*
X93600476Y-67286190D01*
X93648095Y-67190952D01*
X93695714Y-67143333D01*
X93790952Y-67095714D01*
X93981428Y-67095714D01*
X94076666Y-67143333D01*
X94933809Y-67714761D02*
X94838571Y-67762380D01*
X94648095Y-67762380D01*
X94552857Y-67714761D01*
X94505238Y-67619523D01*
X94505238Y-67238571D01*
X94552857Y-67143333D01*
X94648095Y-67095714D01*
X94838571Y-67095714D01*
X94933809Y-67143333D01*
X94981428Y-67238571D01*
X94981428Y-67333809D01*
X94505238Y-67429047D01*
X95267142Y-67095714D02*
X95648095Y-67095714D01*
X95410000Y-66762380D02*
X95410000Y-67619523D01*
X95457619Y-67714761D01*
X95552857Y-67762380D01*
X95648095Y-67762380D01*
X96362380Y-67714761D02*
X96267142Y-67762380D01*
X96076666Y-67762380D01*
X95981428Y-67714761D01*
X95933809Y-67619523D01*
X95933809Y-67238571D01*
X95981428Y-67143333D01*
X96076666Y-67095714D01*
X96267142Y-67095714D01*
X96362380Y-67143333D01*
X96410000Y-67238571D01*
X96410000Y-67333809D01*
X95933809Y-67429047D01*
X97267142Y-67714761D02*
X97171904Y-67762380D01*
X96981428Y-67762380D01*
X96886190Y-67714761D01*
X96838571Y-67667142D01*
X96790952Y-67571904D01*
X96790952Y-67286190D01*
X96838571Y-67190952D01*
X96886190Y-67143333D01*
X96981428Y-67095714D01*
X97171904Y-67095714D01*
X97267142Y-67143333D01*
X97552857Y-67095714D02*
X97933809Y-67095714D01*
X97695714Y-66762380D02*
X97695714Y-67619523D01*
X97743333Y-67714761D01*
X97838571Y-67762380D01*
X97933809Y-67762380D01*
X98410000Y-67762380D02*
X98314761Y-67714761D01*
X98267142Y-67667142D01*
X98219523Y-67571904D01*
X98219523Y-67286190D01*
X98267142Y-67190952D01*
X98314761Y-67143333D01*
X98410000Y-67095714D01*
X98552857Y-67095714D01*
X98648095Y-67143333D01*
X98695714Y-67190952D01*
X98743333Y-67286190D01*
X98743333Y-67571904D01*
X98695714Y-67667142D01*
X98648095Y-67714761D01*
X98552857Y-67762380D01*
X98410000Y-67762380D01*
X99171904Y-67762380D02*
X99171904Y-67095714D01*
X99171904Y-67286190D02*
X99219523Y-67190952D01*
X99267142Y-67143333D01*
X99362380Y-67095714D01*
X99457619Y-67095714D01*
X100457619Y-67095714D02*
X100695714Y-67762380D01*
X100933809Y-67095714D01*
X101267142Y-66857619D02*
X101314761Y-66810000D01*
X101410000Y-66762380D01*
X101648095Y-66762380D01*
X101743333Y-66810000D01*
X101790952Y-66857619D01*
X101838571Y-66952857D01*
X101838571Y-67048095D01*
X101790952Y-67190952D01*
X101219523Y-67762380D01*
X101838571Y-67762380D01*
X102267142Y-67667142D02*
X102314761Y-67714761D01*
X102267142Y-67762380D01*
X102219523Y-67714761D01*
X102267142Y-67667142D01*
X102267142Y-67762380D01*
X102933809Y-66762380D02*
X103029047Y-66762380D01*
X103124285Y-66810000D01*
X103171904Y-66857619D01*
X103219523Y-66952857D01*
X103267142Y-67143333D01*
X103267142Y-67381428D01*
X103219523Y-67571904D01*
X103171904Y-67667142D01*
X103124285Y-67714761D01*
X103029047Y-67762380D01*
X102933809Y-67762380D01*
X102838571Y-67714761D01*
X102790952Y-67667142D01*
X102743333Y-67571904D01*
X102695714Y-67381428D01*
X102695714Y-67143333D01*
X102743333Y-66952857D01*
X102790952Y-66857619D01*
X102838571Y-66810000D01*
X102933809Y-66762380D01*
X116600476Y-66857619D02*
X116648095Y-66810000D01*
X116743333Y-66762380D01*
X116981428Y-66762380D01*
X117076666Y-66810000D01*
X117124285Y-66857619D01*
X117171904Y-66952857D01*
X117171904Y-67048095D01*
X117124285Y-67190952D01*
X116552857Y-67762380D01*
X117171904Y-67762380D01*
X117790952Y-66762380D02*
X117886190Y-66762380D01*
X117981428Y-66810000D01*
X118029047Y-66857619D01*
X118076666Y-66952857D01*
X118124285Y-67143333D01*
X118124285Y-67381428D01*
X118076666Y-67571904D01*
X118029047Y-67667142D01*
X117981428Y-67714761D01*
X117886190Y-67762380D01*
X117790952Y-67762380D01*
X117695714Y-67714761D01*
X117648095Y-67667142D01*
X117600476Y-67571904D01*
X117552857Y-67381428D01*
X117552857Y-67143333D01*
X117600476Y-66952857D01*
X117648095Y-66857619D01*
X117695714Y-66810000D01*
X117790952Y-66762380D01*
X118505238Y-66857619D02*
X118552857Y-66810000D01*
X118648095Y-66762380D01*
X118886190Y-66762380D01*
X118981428Y-66810000D01*
X119029047Y-66857619D01*
X119076666Y-66952857D01*
X119076666Y-67048095D01*
X119029047Y-67190952D01*
X118457619Y-67762380D01*
X119076666Y-67762380D01*
X119933809Y-67095714D02*
X119933809Y-67762380D01*
X119695714Y-66714761D02*
X119457619Y-67429047D01*
X120076666Y-67429047D01*
X121362380Y-67762380D02*
X121267142Y-67714761D01*
X121219523Y-67619523D01*
X121219523Y-66762380D01*
X121743333Y-67762380D02*
X121743333Y-66762380D01*
X121838571Y-67381428D02*
X122124285Y-67762380D01*
X122124285Y-67095714D02*
X121743333Y-67476666D01*
X122981428Y-67762380D02*
X122981428Y-67238571D01*
X122933809Y-67143333D01*
X122838571Y-67095714D01*
X122648095Y-67095714D01*
X122552857Y-67143333D01*
X122981428Y-67714761D02*
X122886190Y-67762380D01*
X122648095Y-67762380D01*
X122552857Y-67714761D01*
X122505238Y-67619523D01*
X122505238Y-67524285D01*
X122552857Y-67429047D01*
X122648095Y-67381428D01*
X122886190Y-67381428D01*
X122981428Y-67333809D01*
X123457619Y-67095714D02*
X123457619Y-68095714D01*
X123457619Y-67143333D02*
X123552857Y-67095714D01*
X123743333Y-67095714D01*
X123838571Y-67143333D01*
X123886190Y-67190952D01*
X123933809Y-67286190D01*
X123933809Y-67571904D01*
X123886190Y-67667142D01*
X123838571Y-67714761D01*
X123743333Y-67762380D01*
X123552857Y-67762380D01*
X123457619Y-67714761D01*
X124505238Y-67762380D02*
X124409999Y-67714761D01*
X124362380Y-67619523D01*
X124362380Y-66762380D01*
X125314761Y-67762380D02*
X125314761Y-67238571D01*
X125267142Y-67143333D01*
X125171904Y-67095714D01*
X124981428Y-67095714D01*
X124886190Y-67143333D01*
X125314761Y-67714761D02*
X125219523Y-67762380D01*
X124981428Y-67762380D01*
X124886190Y-67714761D01*
X124838571Y-67619523D01*
X124838571Y-67524285D01*
X124886190Y-67429047D01*
X124981428Y-67381428D01*
X125219523Y-67381428D01*
X125314761Y-67333809D01*
X125790952Y-67095714D02*
X125790952Y-67762380D01*
X125790952Y-67190952D02*
X125838571Y-67143333D01*
X125933809Y-67095714D01*
X126076666Y-67095714D01*
X126171904Y-67143333D01*
X126219523Y-67238571D01*
X126219523Y-67762380D01*
X126695714Y-67667142D02*
X126743333Y-67714761D01*
X126695714Y-67762380D01*
X126648095Y-67714761D01*
X126695714Y-67667142D01*
X126695714Y-67762380D01*
X127600476Y-67714761D02*
X127505238Y-67762380D01*
X127314761Y-67762380D01*
X127219523Y-67714761D01*
X127171904Y-67667142D01*
X127124285Y-67571904D01*
X127124285Y-67286190D01*
X127171904Y-67190952D01*
X127219523Y-67143333D01*
X127314761Y-67095714D01*
X127505238Y-67095714D01*
X127600476Y-67143333D01*
X127933809Y-67095714D02*
X128457619Y-67095714D01*
X127933809Y-67762380D01*
X128457619Y-67762380D01*
X87415714Y-61951904D02*
X88415714Y-61951904D01*
X87463333Y-61951904D02*
X87415714Y-61856666D01*
X87415714Y-61666190D01*
X87463333Y-61570952D01*
X87510952Y-61523333D01*
X87606190Y-61475714D01*
X87891904Y-61475714D01*
X87987142Y-61523333D01*
X88034761Y-61570952D01*
X88082380Y-61666190D01*
X88082380Y-61856666D01*
X88034761Y-61951904D01*
X88082380Y-61047142D02*
X87415714Y-61047142D01*
X87606190Y-61047142D02*
X87510952Y-60999523D01*
X87463333Y-60951904D01*
X87415714Y-60856666D01*
X87415714Y-60761428D01*
X88082380Y-60285238D02*
X88034761Y-60380476D01*
X87987142Y-60428095D01*
X87891904Y-60475714D01*
X87606190Y-60475714D01*
X87510952Y-60428095D01*
X87463333Y-60380476D01*
X87415714Y-60285238D01*
X87415714Y-60142380D01*
X87463333Y-60047142D01*
X87510952Y-59999523D01*
X87606190Y-59951904D01*
X87891904Y-59951904D01*
X87987142Y-59999523D01*
X88034761Y-60047142D01*
X88082380Y-60142380D01*
X88082380Y-60285238D01*
X88082380Y-59523333D02*
X87082380Y-59523333D01*
X87463333Y-59523333D02*
X87415714Y-59428095D01*
X87415714Y-59237619D01*
X87463333Y-59142380D01*
X87510952Y-59094761D01*
X87606190Y-59047142D01*
X87891904Y-59047142D01*
X87987142Y-59094761D01*
X88034761Y-59142380D01*
X88082380Y-59237619D01*
X88082380Y-59428095D01*
X88034761Y-59523333D01*
X88034761Y-58237619D02*
X88082380Y-58332857D01*
X88082380Y-58523333D01*
X88034761Y-58618571D01*
X87939523Y-58666190D01*
X87558571Y-58666190D01*
X87463333Y-58618571D01*
X87415714Y-58523333D01*
X87415714Y-58332857D01*
X87463333Y-58237619D01*
X87558571Y-58190000D01*
X87653809Y-58190000D01*
X87749047Y-58666190D01*
X88034761Y-57809047D02*
X88082380Y-57713809D01*
X88082380Y-57523333D01*
X88034761Y-57428095D01*
X87939523Y-57380476D01*
X87891904Y-57380476D01*
X87796666Y-57428095D01*
X87749047Y-57523333D01*
X87749047Y-57666190D01*
X87701428Y-57761428D01*
X87606190Y-57809047D01*
X87558571Y-57809047D01*
X87463333Y-57761428D01*
X87415714Y-57666190D01*
X87415714Y-57523333D01*
X87463333Y-57428095D01*
X128722380Y-63015714D02*
X127722380Y-63015714D01*
X127722380Y-62777619D01*
X127770000Y-62634761D01*
X127865238Y-62539523D01*
X127960476Y-62491904D01*
X128150952Y-62444285D01*
X128293809Y-62444285D01*
X128484285Y-62491904D01*
X128579523Y-62539523D01*
X128674761Y-62634761D01*
X128722380Y-62777619D01*
X128722380Y-63015714D01*
X127722380Y-61825238D02*
X127722380Y-61634761D01*
X127770000Y-61539523D01*
X127865238Y-61444285D01*
X128055714Y-61396666D01*
X128389047Y-61396666D01*
X128579523Y-61444285D01*
X128674761Y-61539523D01*
X128722380Y-61634761D01*
X128722380Y-61825238D01*
X128674761Y-61920476D01*
X128579523Y-62015714D01*
X128389047Y-62063333D01*
X128055714Y-62063333D01*
X127865238Y-62015714D01*
X127770000Y-61920476D01*
X127722380Y-61825238D01*
%TO.C,R3*%
X105243333Y-65222380D02*
X104910000Y-64746190D01*
X104671904Y-65222380D02*
X104671904Y-64222380D01*
X105052857Y-64222380D01*
X105148095Y-64270000D01*
X105195714Y-64317619D01*
X105243333Y-64412857D01*
X105243333Y-64555714D01*
X105195714Y-64650952D01*
X105148095Y-64698571D01*
X105052857Y-64746190D01*
X104671904Y-64746190D01*
X105576666Y-64222380D02*
X106195714Y-64222380D01*
X105862380Y-64603333D01*
X106005238Y-64603333D01*
X106100476Y-64650952D01*
X106148095Y-64698571D01*
X106195714Y-64793809D01*
X106195714Y-65031904D01*
X106148095Y-65127142D01*
X106100476Y-65174761D01*
X106005238Y-65222380D01*
X105719523Y-65222380D01*
X105624285Y-65174761D01*
X105576666Y-65127142D01*
%TO.C,J1*%
X97242380Y-60253333D02*
X97956666Y-60253333D01*
X98099523Y-60300952D01*
X98194761Y-60396190D01*
X98242380Y-60539047D01*
X98242380Y-60634285D01*
X98242380Y-59253333D02*
X98242380Y-59824761D01*
X98242380Y-59539047D02*
X97242380Y-59539047D01*
X97385238Y-59634285D01*
X97480476Y-59729523D01*
X97528095Y-59824761D01*
%TO.C,Q1*%
X109517619Y-59785238D02*
X109470000Y-59880476D01*
X109374761Y-59975714D01*
X109231904Y-60118571D01*
X109184285Y-60213809D01*
X109184285Y-60309047D01*
X109422380Y-60261428D02*
X109374761Y-60356666D01*
X109279523Y-60451904D01*
X109089047Y-60499523D01*
X108755714Y-60499523D01*
X108565238Y-60451904D01*
X108470000Y-60356666D01*
X108422380Y-60261428D01*
X108422380Y-60070952D01*
X108470000Y-59975714D01*
X108565238Y-59880476D01*
X108755714Y-59832857D01*
X109089047Y-59832857D01*
X109279523Y-59880476D01*
X109374761Y-59975714D01*
X109422380Y-60070952D01*
X109422380Y-60261428D01*
X109422380Y-58880476D02*
X109422380Y-59451904D01*
X109422380Y-59166190D02*
X108422380Y-59166190D01*
X108565238Y-59261428D01*
X108660476Y-59356666D01*
X108708095Y-59451904D01*
%TO.C,J2*%
X117562380Y-59983333D02*
X118276666Y-59983333D01*
X118419523Y-60030952D01*
X118514761Y-60126190D01*
X118562380Y-60269047D01*
X118562380Y-60364285D01*
X117657619Y-59554761D02*
X117610000Y-59507142D01*
X117562380Y-59411904D01*
X117562380Y-59173809D01*
X117610000Y-59078571D01*
X117657619Y-59030952D01*
X117752857Y-58983333D01*
X117848095Y-58983333D01*
X117990952Y-59030952D01*
X118562380Y-59602380D01*
X118562380Y-58983333D01*
%TO.C,R1*%
X105243333Y-55062380D02*
X104910000Y-54586190D01*
X104671904Y-55062380D02*
X104671904Y-54062380D01*
X105052857Y-54062380D01*
X105148095Y-54110000D01*
X105195714Y-54157619D01*
X105243333Y-54252857D01*
X105243333Y-54395714D01*
X105195714Y-54490952D01*
X105148095Y-54538571D01*
X105052857Y-54586190D01*
X104671904Y-54586190D01*
X106195714Y-55062380D02*
X105624285Y-55062380D01*
X105910000Y-55062380D02*
X105910000Y-54062380D01*
X105814761Y-54205238D01*
X105719523Y-54300476D01*
X105624285Y-54348095D01*
%TO.C,R2*%
X114752380Y-58586666D02*
X114276190Y-58920000D01*
X114752380Y-59158095D02*
X113752380Y-59158095D01*
X113752380Y-58777142D01*
X113800000Y-58681904D01*
X113847619Y-58634285D01*
X113942857Y-58586666D01*
X114085714Y-58586666D01*
X114180952Y-58634285D01*
X114228571Y-58681904D01*
X114276190Y-58777142D01*
X114276190Y-59158095D01*
X113847619Y-58205714D02*
X113800000Y-58158095D01*
X113752380Y-58062857D01*
X113752380Y-57824761D01*
X113800000Y-57729523D01*
X113847619Y-57681904D01*
X113942857Y-57634285D01*
X114038095Y-57634285D01*
X114180952Y-57681904D01*
X114752380Y-58253333D01*
X114752380Y-57634285D01*
D11*
%TO.C,R3*%
X102140000Y-63730000D02*
X102140000Y-63400000D01*
X102140000Y-63400000D02*
X108680000Y-63400000D01*
X102140000Y-66140000D02*
X108680000Y-66140000D01*
X108680000Y-66140000D02*
X108680000Y-65810000D01*
X108680000Y-63400000D02*
X108680000Y-63730000D01*
X102140000Y-65810000D02*
X102140000Y-66140000D01*
%TO.C,J1*%
X99241000Y-54780000D02*
X89320000Y-54780000D01*
X96281000Y-54780000D02*
X96281000Y-65060000D01*
X95049000Y-63735000D02*
X95003000Y-63688000D01*
X99241000Y-65060000D02*
X89320000Y-65060000D01*
X95255000Y-63530000D02*
X95219000Y-63495000D01*
X92957000Y-61233000D02*
X92911000Y-61186000D01*
X89820000Y-54540000D02*
X89080000Y-54540000D01*
X89880000Y-54780000D02*
X89880000Y-65060000D01*
X89080000Y-54540000D02*
X89080000Y-55040000D01*
X99241000Y-54780000D02*
X99241000Y-65060000D01*
X92741000Y-61426000D02*
X92706000Y-61391000D01*
X89320000Y-54780000D02*
X89320000Y-65060000D01*
X91380000Y-54780000D02*
X91380000Y-65060000D01*
X95515000Y-58064000D02*
G75*
G03*
X95515427Y-56696958I-1534993J684001D01*
G01*
X92445000Y-56696000D02*
G75*
G03*
X92299747Y-57408805I1535001J-683999D01*
G01*
X93296000Y-58915001D02*
G75*
G03*
X94663042Y-58915427I684000J1535001D01*
G01*
X94664000Y-55845000D02*
G75*
G03*
X93296958Y-55844573I-684001J-1534993D01*
G01*
X92300000Y-57380000D02*
G75*
G03*
X92445244Y-58063318I1680000J0D01*
G01*
X95660000Y-62460000D02*
G75*
G03*
X95660000Y-62460000I-1680000J0D01*
G01*
%TO.C,Q1*%
X103560000Y-57890000D02*
X103560000Y-61490000D01*
X103571522Y-61528478D02*
G75*
G03*
X108010000Y-59690000I1838478J1838478D01*
G01*
X108010001Y-59690000D02*
G75*
G03*
X103571522Y-57851522I-2600001J0D01*
G01*
%TO.C,J2*%
X123464000Y-58144000D02*
X123499000Y-58179000D01*
X126385000Y-65030000D02*
X127125000Y-65030000D01*
X116964000Y-64790000D02*
X126885000Y-64790000D01*
X127125000Y-65030000D02*
X127125000Y-64530000D01*
X126325000Y-64790000D02*
X126325000Y-54510000D01*
X121156000Y-55835000D02*
X121202000Y-55882000D01*
X123248000Y-58337000D02*
X123294000Y-58384000D01*
X126885000Y-64790000D02*
X126885000Y-54510000D01*
X116964000Y-54510000D02*
X126885000Y-54510000D01*
X120950000Y-56040000D02*
X120986000Y-56075000D01*
X119924000Y-64790000D02*
X119924000Y-54510000D01*
X124825000Y-64790000D02*
X124825000Y-54510000D01*
X116964000Y-64790000D02*
X116964000Y-54510000D01*
X122909000Y-60654999D02*
G75*
G03*
X121541958Y-60654573I-684000J-1535001D01*
G01*
X120690000Y-61506000D02*
G75*
G03*
X120689573Y-62873042I1534993J-684001D01*
G01*
X123905000Y-62190000D02*
G75*
G03*
X123759756Y-61506682I-1680000J0D01*
G01*
X123760000Y-62874000D02*
G75*
G03*
X123905253Y-62161195I-1535001J683999D01*
G01*
X121541000Y-63725000D02*
G75*
G03*
X122908042Y-63725427I684001J1534993D01*
G01*
X123905000Y-57110000D02*
G75*
G03*
X123905000Y-57110000I-1680000J0D01*
G01*
%TO.C,R1*%
X108680000Y-53570000D02*
X108680000Y-53240000D01*
X108680000Y-55980000D02*
X102140000Y-55980000D01*
X102140000Y-55980000D02*
X102140000Y-55650000D01*
X108680000Y-55650000D02*
X108680000Y-55980000D01*
X108680000Y-53240000D02*
X102140000Y-53240000D01*
X102140000Y-53240000D02*
X102140000Y-53570000D01*
%TO.C,R2*%
X113260000Y-55150000D02*
X112930000Y-55150000D01*
X115340000Y-55150000D02*
X115670000Y-55150000D01*
X112930000Y-61690000D02*
X113260000Y-61690000D01*
X115670000Y-61690000D02*
X115340000Y-61690000D01*
X112930000Y-55150000D02*
X112930000Y-61690000D01*
X115670000Y-55150000D02*
X115670000Y-61690000D01*
%TD*%
M02*
